<?xml version="1.0" standalone="no"?>
<!DOCTYPE svg PUBLIC "-//W3C//DTD SVG 20010904//EN"
 "http://www.w3.org/TR/2001/REC-SVG-20010904/DTD/svg10.dtd">
<svg version="1.0" xmlns="http://www.w3.org/2000/svg"
 width="500.000000pt" height="500.000000pt" viewBox="0 0 500.000000 500.000000"
 preserveAspectRatio="xMidYMid meet">

<g transform="translate(0.000000,500.000000) scale(0.100000,-0.100000)"
fill="#000000" stroke="none">
<path d="M1800 4750 c-25 -23 -62 -53 -82 -67 -41 -28 -46 -47 -24 -96 8 -18
36 -86 61 -152 26 -66 66 -170 91 -232 24 -62 44 -120 44 -131 0 -10 -18 -31
-40 -48 -49 -36 -85 -88 -100 -145 -7 -24 -25 -73 -40 -109 -16 -36 -40 -123
-54 -195 -14 -71 -37 -186 -51 -255 -39 -188 -46 -240 -40 -261 14 -42 7 -200
-9 -224 -21 -32 -21 -108 -1 -125 13 -11 21 -8 48 18 18 18 38 32 45 32 6 0 9
7 6 15 -7 17 34 30 64 20 26 -8 38 11 15 24 -14 8 -16 12 -5 22 9 10 15 10 24
1 7 -7 23 -12 38 -12 14 0 20 -4 14 -8 -24 -16 -13 -93 18 -122 30 -28 39 -8
22 49 -7 25 -10 48 -6 52 41 34 65 46 82 42 20 -5 29 -33 10 -33 -18 0 -11
-18 10 -23 24 -6 89 23 90 41 0 6 6 12 13 12 7 0 20 15 28 33 9 20 22 33 37
35 26 4 28 14 7 32 -8 7 -15 23 -15 35 0 13 -4 25 -9 27 -5 2 -13 16 -17 32
-4 19 -3 27 3 23 16 -10 20 10 17 84 -3 90 10 105 25 30 12 -61 31 -83 31 -36
0 29 16 34 24 8 6 -18 4 -40 -10 -115 -5 -28 -2 -41 10 -54 10 -9 14 -24 11
-34 -6 -19 20 -115 38 -137 7 -10 19 -4 51 23 l41 35 17 -38 c9 -21 17 -60 17
-87 1 -47 1 -48 29 -41 15 3 29 11 31 18 2 6 15 21 29 34 21 19 22 22 6 17
-15 -5 -12 0 10 24 28 31 66 43 66 22 0 -5 16 -16 36 -25 21 -8 33 -19 29 -25
-4 -6 1 -20 11 -31 15 -17 16 -23 5 -40 -11 -18 -10 -21 8 -26 12 -3 21 -9 21
-14 0 -5 3 -8 8 -7 22 5 63 -16 60 -31 -3 -13 -17 -16 -88 -14 -47 1 -93 5
-103 9 -36 14 -98 -17 -134 -67 -18 -26 -40 -50 -48 -53 -8 -3 -15 -13 -15
-22 0 -10 -6 -25 -14 -33 -8 -9 -18 -38 -22 -66 -6 -46 -6 -49 10 -36 9 8 15
23 14 35 -3 18 2 21 26 19 20 -2 34 4 44 18 13 19 14 19 45 1 41 -25 136 -35
144 -16 3 8 9 11 14 8 20 -12 72 34 105 93 36 64 52 77 75 62 8 -4 24 -6 35
-3 12 3 25 1 28 -5 4 -5 13 -8 21 -4 25 9 17 -14 -11 -31 -21 -15 -24 -23 -20
-52 5 -26 2 -34 -9 -34 -17 0 -52 -18 -73 -37 -7 -7 -18 -13 -23 -13 -5 0 -9
-6 -9 -14 0 -8 -13 -17 -30 -21 -19 -4 -37 -19 -50 -41 -12 -19 -26 -34 -31
-34 -5 0 -14 -11 -19 -25 -6 -15 -17 -25 -30 -25 -15 0 -26 -14 -42 -50 -12
-27 -27 -50 -34 -50 -7 0 -15 -4 -18 -9 -7 -11 3 -41 14 -41 13 0 164 102 177
119 6 9 22 16 35 16 16 0 28 10 40 34 24 47 37 59 47 42 12 -20 30 -5 24 20
-4 15 0 22 16 26 11 3 21 11 21 19 0 20 22 64 32 64 5 0 7 -8 4 -17 -3 -10 -2
-24 3 -32 7 -11 11 -10 20 7 6 11 11 29 11 39 0 11 7 28 15 39 8 10 15 29 15
41 0 12 10 41 21 63 18 35 21 51 15 105 -9 85 -27 126 -78 169 -48 42 -54 43
-61 16 -4 -15 -14 -20 -40 -20 l-35 0 39 40 c21 21 39 41 39 44 0 3 -13 20
-30 38 -18 19 -30 43 -30 59 0 15 -7 32 -15 39 -8 7 -15 20 -15 29 0 23 -36
54 -80 71 -19 7 -46 23 -60 36 -20 18 -63 33 -110 39 -3 0 -12 5 -20 10 -8 5
-35 13 -60 17 -96 16 -136 25 -157 36 -29 16 -32 15 -43 -10 l-9 -23 -7 23
c-4 14 -12 21 -20 18 -8 -3 -18 4 -24 14 -15 27 -28 25 -36 -5 -6 -23 -8 -24
-19 -9 -9 13 -19 15 -41 9 -33 -9 -56 -12 -136 -21 -32 -4 -58 -10 -58 -13 0
-3 -21 -7 -46 -8 -43 -2 -46 -1 -39 20 9 29 8 34 -5 86 -13 54 -7 79 15 61 30
-25 16 33 -21 87 -36 52 -36 54 -29 123 4 38 11 70 16 70 5 0 9 22 9 49 0 27
3 51 8 53 10 4 52 95 52 113 0 8 10 19 21 26 20 10 21 9 16 -10 -7 -28 27
-115 47 -119 8 -2 20 -19 25 -37 8 -31 47 -84 54 -74 2 2 11 24 21 49 10 25
22 54 27 65 5 11 18 49 29 85 17 52 30 72 66 103 l45 37 108 0 c59 0 111 4
117 9 13 14 75 -11 126 -50 96 -74 162 -136 198 -183 42 -57 138 -156 150
-156 5 0 12 -9 15 -20 4 -11 18 -32 32 -46 14 -14 26 -37 26 -51 0 -18 8 -29
31 -39 17 -7 27 -13 23 -14 -5 0 1 -13 12 -29 12 -16 26 -53 32 -82 5 -30 14
-67 19 -82 5 -16 5 -38 1 -49 -11 -32 -27 -3 -45 82 -12 59 -21 80 -42 97 -56
44 -54 17 11 -152 56 -144 53 -136 65 -212 13 -76 39 -134 85 -183 35 -37 35
-37 50 -255 3 -38 8 -80 10 -92 10 -42 5 -449 -5 -508 -6 -33 -13 -85 -16
-115 -3 -30 -14 -74 -25 -97 -24 -54 -24 -69 2 -117 18 -34 19 -46 11 -95 -7
-38 -7 -60 1 -69 28 -34 42 55 68 423 18 254 20 318 10 420 -6 66 -15 192 -21
280 -5 88 -12 189 -15 225 -5 68 -59 348 -93 485 -11 44 -23 100 -27 124 -8
48 -2 40 -170 198 -44 41 -109 103 -144 137 -66 63 -129 118 -195 171 -21 17
-68 55 -105 86 -64 52 -72 56 -134 62 -94 9 -101 14 -121 99 -9 40 -21 89 -26
108 -40 168 -72 305 -82 353 -13 64 -10 62 -144 86 -89 16 -96 15 -144 -29z
m1160 -1220 c0 -5 -2 -10 -4 -10 -3 0 -8 5 -11 10 -3 6 -1 10 4 10 6 0 11 -4
11 -10z m-907 -406 c-5 -13 -23 -20 -23 -10 0 2 -3 11 -6 19 -4 12 0 14 15 10
12 -3 17 -11 14 -19z m-53 -79 c-7 -8 -9 -23 -5 -35 5 -15 2 -20 -10 -20 -13
0 -15 6 -10 32 4 18 7 52 7 77 l-1 46 15 -43 c12 -33 12 -47 4 -57z m234 80
c3 -8 1 -15 -4 -15 -6 0 -10 7 -10 15 0 8 2 15 4 15 2 0 6 -7 10 -15z m41 -54
c0 -23 -22 -24 -28 -1 -4 16 -1 20 11 18 9 -2 17 -10 17 -17z m-225 -41 c0 -5
-4 -10 -10 -10 -5 0 -10 5 -10 10 0 6 5 10 10 10 6 0 10 -4 10 -10z m-30 -176
c0 -8 -7 -14 -15 -14 -15 0 -21 21 -9 33 10 9 24 -2 24 -19z m505 -354 c3 -5
1 -10 -4 -10 -6 0 -11 5 -11 10 0 6 2 10 4 10 3 0 8 -4 11 -10z"/>
<path d="M1598 2608 c-29 -10 -54 -18 -55 -18 -2 0 -3 -7 -3 -15 0 -8 -5 -24
-12 -34 -14 -23 4 -51 32 -51 11 0 26 -15 37 -37 26 -50 62 -60 156 -45 64 10
73 9 85 -5 6 -9 12 -24 12 -34 0 -25 38 -31 61 -8 26 26 24 37 -17 116 -46 87
-50 91 -99 114 -70 33 -136 39 -197 17z m240 -68 c1 -8 -7 -21 -18 -28 -17
-10 -21 -10 -26 3 -9 23 4 47 23 43 10 -2 19 -10 21 -18z"/>
<path d="M1570 2383 c0 -25 77 -123 97 -123 38 0 15 92 -25 98 -12 2 -22 7
-22 12 0 4 -11 10 -25 12 -14 3 -25 3 -25 1z"/>
<path d="M2192 2288 c-7 -7 -12 -21 -12 -33 0 -50 -44 -59 -80 -16 -21 24 -30
28 -57 24 -19 -3 -33 -11 -33 -19 0 -16 -31 -34 -59 -34 -31 0 -42 -29 -24
-63 17 -34 14 -39 -29 -41 -37 -3 -68 18 -68 45 0 28 -11 49 -26 49 -8 0 -14
-5 -14 -10 0 -7 -7 -7 -20 0 -21 11 -40 6 -40 -10 0 -5 11 -12 25 -16 14 -3
25 -11 25 -16 0 -6 8 -17 17 -24 23 -16 8 -32 -16 -17 -10 7 -28 9 -39 6 -28
-7 -62 14 -62 38 0 12 -4 17 -11 14 -18 -11 1 -66 49 -145 25 -41 52 -83 61
-93 11 -13 17 -63 24 -196 5 -98 7 -191 3 -206 -7 -27 -14 -35 -101 -116 -180
-164 -289 -322 -266 -382 11 -29 30 -34 49 -15 9 9 18 9 37 0 24 -11 30 -9 67
28 23 22 49 40 58 40 24 0 40 20 40 51 0 30 49 79 80 79 16 0 17 -8 13 -103
-6 -118 0 -146 58 -245 21 -37 39 -77 39 -90 0 -12 -12 -50 -26 -85 -22 -51
-28 -84 -33 -187 -6 -116 -9 -129 -34 -161 -23 -30 -35 -59 -24 -59 1 0 28 -4
60 -10 80 -13 332 5 364 26 44 28 48 54 21 139 -14 42 -21 78 -16 81 5 3 49
-2 99 -12 86 -16 93 -16 146 0 30 10 59 14 63 9 4 -4 21 -48 39 -97 l31 -89
-20 -42 c-11 -23 -20 -46 -20 -52 0 -6 19 -18 43 -27 49 -18 230 -22 300 -7
23 6 54 12 69 16 50 10 86 71 59 101 -4 5 -15 31 -24 57 -9 26 -36 78 -60 115
l-44 67 -6 113 -5 113 71 82 c124 144 152 174 173 181 13 4 25 21 33 46 6 22
17 40 24 40 7 0 51 -45 97 -100 47 -55 94 -103 106 -106 36 -9 137 38 154 71
8 17 23 41 33 55 12 17 17 44 17 91 0 63 -2 70 -44 127 -30 40 -70 77 -122
112 -74 50 -214 124 -221 117 -2 -2 13 -18 32 -36 37 -33 44 -51 21 -51 -21 0
-31 -21 -15 -31 8 -5 28 -7 44 -3 48 10 59 7 94 -25 17 -16 41 -33 52 -36 16
-5 20 -13 16 -31 -4 -25 15 -50 32 -40 14 9 63 -43 54 -57 -5 -7 -8 -23 -8
-36 0 -13 -6 -26 -12 -28 -7 -3 -13 3 -13 12 0 17 -28 51 -36 43 -2 -3 -6 -28
-7 -56 -2 -29 -7 -55 -11 -59 -11 -12 -41 13 -38 32 2 11 -1 14 -8 10 -6 -4
-9 -13 -6 -20 6 -17 -21 -55 -40 -55 -8 0 -17 13 -20 29 -4 20 -15 33 -35 42
-17 6 -47 31 -68 55 -21 24 -43 44 -48 44 -15 0 -50 -42 -64 -75 -12 -29 -13
-27 -21 45 -6 51 -6 76 1 78 6 2 11 19 11 38 0 37 13 44 29 17 6 -10 11 -13
11 -7 0 6 -11 21 -24 33 -35 33 -68 25 -82 -19 -7 -21 -22 -40 -37 -48 -29
-14 -65 -58 -92 -112 -10 -19 -29 -43 -44 -54 -34 -27 -96 -90 -127 -132 -30
-39 -28 -74 3 -90 l23 -11 -23 -20 c-12 -12 -45 -31 -74 -43 -29 -12 -58 -28
-64 -36 -6 -8 -18 -14 -26 -14 -7 0 -26 -9 -41 -20 -28 -21 -136 -40 -178 -32
-31 6 -74 46 -74 70 0 23 26 47 61 55 37 9 79 45 72 62 -3 8 -26 21 -52 28
-29 9 -50 22 -56 35 -8 17 -19 22 -50 22 -41 1 -68 17 -97 58 -12 18 -14 30
-6 56 7 23 6 46 -4 82 l-14 49 -49 5 -50 5 3 43 c5 56 -11 77 -42 56 -39 -25
-47 -57 -25 -94 28 -45 28 -99 2 -141 l-22 -33 -21 49 c-20 46 -47 242 -35
254 3 2 5 0 5 -6 0 -5 7 -10 15 -10 8 0 15 7 15 14 0 8 -4 12 -9 8 -11 -6 -26
58 -18 72 3 4 1 30 -3 56 -4 26 -3 50 2 53 4 3 8 20 8 39 0 19 5 37 10 40 6 4
8 10 5 15 -3 5 -1 11 5 15 5 3 10 19 10 35 0 16 4 31 9 35 6 3 8 33 5 67 -4
52 -2 63 15 74 11 8 21 24 23 37 4 30 44 36 53 8 4 -12 18 -23 33 -26 15 -3
44 -15 64 -25 20 -11 39 -20 42 -20 3 0 15 18 27 40 17 31 33 43 72 57 32 12
54 27 62 44 8 14 30 34 50 43 19 9 35 23 35 31 0 17 -9 19 -30 5 -9 -5 -19 -5
-26 1 -7 6 -28 11 -47 12 -19 1 -42 8 -50 16 -9 7 -25 10 -37 6 -26 -8 -38 20
-21 47 9 15 9 28 0 55 -8 25 -8 38 0 46 13 13 15 44 3 51 -5 3 -14 0 -20 -6z
m-322 -266 c19 -10 40 -27 46 -39 6 -13 14 -20 17 -16 4 3 7 1 7 -5 0 -7 -10
-9 -28 -6 -16 3 -45 -1 -65 -10 -20 -8 -37 -11 -37 -6 0 5 -15 29 -34 53 -19
25 -32 48 -28 52 10 9 82 -4 122 -23z m-88 -633 c-4 -59 -23 -89 -57 -89 -26
0 -45 -18 -45 -43 0 -24 -58 -127 -71 -127 -5 0 -9 22 -9 49 0 28 -4 53 -10
56 -21 13 -7 32 70 95 43 36 85 78 91 93 19 44 34 27 31 -34z m1025 -601 c4
-7 8 -24 9 -38 10 -139 24 -224 43 -256 23 -38 27 -59 11 -49 -6 4 -5 -5 2
-20 6 -14 17 -24 24 -21 7 3 17 -8 23 -26 15 -42 14 -58 -3 -58 -8 0 -22 -20
-32 -45 -16 -44 -18 -46 -58 -45 -23 0 -61 -1 -86 -2 -37 -3 -45 0 -48 15 -2
11 -12 27 -23 38 -10 10 -19 27 -19 38 0 11 -9 21 -21 24 -17 5 -20 11 -15 29
18 56 18 68 3 68 -18 0 -32 17 -41 50 -6 23 -6 23 7 8 39 -48 31 11 -9 71 -30
46 -26 98 9 121 12 8 40 32 61 52 29 28 48 38 72 38 18 0 36 5 39 10 9 14 42
12 52 -2z m-886 -111 c6 -13 33 -38 61 -56 27 -18 47 -35 44 -38 -3 -3 -26 0
-50 7 -47 13 -69 36 -78 83 -6 33 8 36 23 4z"/>
<path d="M2782 1633 c-6 -11 -16 -60 -23 -109 -7 -49 -18 -103 -25 -121 -18
-41 -122 -179 -168 -221 -20 -18 -36 -39 -36 -47 0 -8 -8 -19 -17 -24 -10 -6
-13 -11 -7 -11 6 0 28 11 48 25 20 14 39 25 42 25 3 0 27 18 53 40 26 22 53
40 60 40 6 0 30 37 53 83 22 45 52 105 67 133 36 71 34 136 -7 177 -29 28 -30
29 -40 10z"/>
<path d="M2151 1568 c-5 -14 -11 -54 -12 -89 -2 -52 0 -65 13 -67 28 -5 37 29
28 102 -10 78 -16 89 -29 54z"/>
<path d="M3137 1383 c-4 -3 -7 -15 -7 -25 0 -13 7 -18 25 -18 20 0 25 5 25 25
0 18 -5 25 -18 25 -10 0 -22 -3 -25 -7z"/>
<path d="M3470 1210 c0 -5 5 -10 10 -10 6 0 10 5 10 10 0 6 -4 10 -10 10 -5 0
-10 -4 -10 -10z"/>
</g>
</svg>
