<?xml version="1.0" standalone="no"?>
<!DOCTYPE svg PUBLIC "-//W3C//DTD SVG 20010904//EN"
 "http://www.w3.org/TR/2001/REC-SVG-20010904/DTD/svg10.dtd">
<svg version="1.0" xmlns="http://www.w3.org/2000/svg"
 width="224.000000pt" height="225.000000pt" viewBox="0 0 224.000000 225.000000"
 preserveAspectRatio="xMidYMid meet">

<g transform="translate(0.000000,225.000000) scale(0.100000,-0.100000)"
fill="#000000" stroke="none">
<path d="M1965 2213 c-106 -24 -221 -89 -369 -209 -101 -81 -234 -154 -280
-154 -13 0 -13 -4 -1 -32 12 -29 18 -33 46 -30 40 5 52 -13 33 -51 -18 -34
-11 -49 8 -18 18 29 31 26 26 -4 -3 -14 -1 -25 3 -25 5 0 9 9 9 21 0 18 4 20
28 14 15 -3 31 -13 35 -21 4 -8 13 -14 20 -14 7 0 23 -18 37 -40 15 -24 30
-38 38 -35 8 3 26 -1 40 -9 15 -8 35 -17 45 -20 9 -3 17 -10 17 -16 0 -8 -28
-9 -87 -5 -116 8 -141 14 -122 26 11 7 10 9 -6 9 -27 0 -45 19 -45 47 0 12 -8
26 -17 32 -14 8 -26 2 -58 -28 -38 -37 -85 -61 -85 -44 0 12 -50 10 -50 -2 -1
-5 -8 2 -16 18 -17 32 -34 35 -41 7 -6 -22 -14 -25 -28 -11 -16 14 -79 25 -71
12 11 -18 -4 -34 -19 -21 -10 8 -15 8 -21 -1 -4 -7 -3 -9 4 -6 6 5 8 -1 5 -14
-6 -20 -6 -20 -16 -3 -6 11 -13 21 -17 24 -13 9 -22 50 -11 50 6 0 10 10 10
23 -1 17 -2 18 -6 4 -7 -27 -23 -10 -24 26 l-1 32 -7 -30 c-4 -16 -4 -38 1
-47 6 -12 5 -18 -2 -18 -7 0 -10 -17 -9 -43 2 -24 -1 -48 -4 -54 -4 -7 -1 -31
7 -55 11 -29 12 -44 5 -49 -8 -4 -8 -13 0 -27 14 -26 15 -75 1 -67 -6 3 -10
-1 -10 -9 0 -9 6 -15 13 -13 7 1 12 -9 13 -25 1 -18 -4 -28 -13 -28 -8 0 -11
4 -8 10 3 6 -1 7 -10 3 -13 -4 -14 -8 -4 -14 28 -17 -1 -20 -32 -3 -23 11 -34
13 -37 5 -5 -16 -55 -14 -78 4 -11 8 -14 14 -6 15 15 0 32 41 24 55 -14 22 -9
82 9 118 23 45 16 85 -15 93 -20 5 -22 9 -16 52 4 26 9 52 11 57 2 6 0 11 -5
12 -5 1 -12 7 -16 13 -5 8 -9 7 -13 -5 -4 -9 -3 -13 3 -10 15 10 12 -18 -6
-43 -8 -12 -22 -35 -30 -50 -13 -25 -14 -26 -14 -4 0 23 -19 32 -21 10 0 -7
-5 -3 -11 9 -10 20 -12 21 -33 7 -18 -12 -23 -12 -22 -2 0 7 -1 22 -1 32 -2
18 -3 18 -21 2 -22 -20 -79 -31 -114 -22 -13 3 -36 17 -50 30 -15 14 -35 30
-44 36 -13 8 -14 13 -5 16 14 6 16 40 3 48 -5 4 -11 1 -13 -6 -3 -7 -7 -5 -11
6 -4 9 -3 15 2 12 10 -6 37 22 29 30 -3 2 -22 7 -42 9 -21 3 -56 18 -79 34
-23 16 -54 29 -69 29 -19 0 -46 15 -80 45 -29 25 -74 64 -101 87 l-47 42 0
-352 c0 -343 0 -352 20 -357 11 -3 20 -11 20 -17 0 -21 25 -66 36 -66 6 0 17
-6 23 -13 6 -8 30 -20 53 -27 24 -8 48 -17 53 -21 6 -3 46 -10 90 -14 44 -3
100 -11 125 -17 25 -5 50 -11 55 -12 21 -4 35 -18 29 -28 -4 -6 -1 -13 5 -17
7 -5 5 -14 -9 -29 -12 -12 -18 -22 -14 -22 3 0 1 -7 -6 -15 -6 -8 -9 -23 -5
-35 3 -11 2 -20 -3 -20 -5 0 -9 -10 -8 -22 2 -33 -26 -34 -86 -4 -29 14 -64
26 -80 26 -21 0 -26 4 -21 16 5 14 0 15 -38 9 l-44 -7 24 21 24 21 -29 0 c-38
0 -71 20 -34 20 36 0 4 20 -34 20 -20 0 -27 4 -23 14 4 10 -6 15 -32 20 -21 3
-44 13 -51 21 -38 46 -39 37 -40 -556 l0 -571 1015 3 c956 4 1017 5 1026 21
12 22 35 23 73 3 15 -8 50 -15 78 -15 l49 0 -3 40 -2 40 -48 -6 c-48 -7 -108
9 -108 28 0 5 11 20 25 33 15 13 22 25 18 28 -4 3 -35 -1 -68 -8 -33 -7 -48
-14 -33 -14 47 -2 43 -21 -4 -21 -44 0 -44 0 -40 33 3 26 13 38 52 62 41 26
47 32 36 45 -8 8 -11 21 -9 28 7 18 -36 15 -43 -3 -4 -8 -10 -13 -14 -10 -4 3
-13 -2 -20 -10 -14 -17 -50 -20 -50 -5 0 6 5 10 11 10 7 0 9 10 7 24 -5 27 11
40 37 30 11 -5 15 1 15 19 0 26 20 37 68 37 13 0 21 4 18 9 -4 5 2 7 13 4 10
-2 38 1 62 8 40 11 42 13 19 19 -22 5 -23 7 -6 13 11 5 28 1 42 -8 13 -9 24
-12 24 -8 -1 14 -27 43 -39 43 -19 0 -71 30 -71 41 0 5 10 13 22 18 18 6 19 9
5 14 -10 4 -17 2 -17 -2 0 -12 -27 -21 -44 -15 -8 3 -16 15 -19 26 -5 18 -2
20 29 15 l34 -6 -45 58 c-25 31 -45 64 -45 72 0 9 12 49 26 90 20 60 24 85 19
134 -4 41 -1 77 10 115 9 30 19 69 21 85 11 65 -68 219 -153 299 l-37 35 -3
108 c-1 59 3 131 9 160 9 43 8 58 -6 94 -25 61 -14 103 53 211 71 113 79 140
51 168 -20 20 -35 22 -75 13z m-1634 -556 c-1 -12 -15 -9 -19 4 -3 6 1 10 8 8
6 -3 11 -8 11 -12z m1426 -123 c-3 -3 -12 -4 -19 -1 -8 3 -5 6 6 6 11 1 17 -2
13 -5z m123 -54 c0 -5 -9 -10 -20 -10 -11 0 -20 5 -20 10 0 6 9 10 20 10 11 0
20 -4 20 -10z m55 -36 c17 -13 18 -16 5 -25 -13 -9 -12 -10 2 -5 10 3 20 0 24
-6 5 -8 -2 -9 -24 -5 -17 4 -34 2 -37 -3 -3 -6 -13 -10 -21 -10 -8 0 -12 5 -9
11 4 6 -2 13 -14 16 -28 7 -27 30 2 36 41 8 52 6 72 -9z m-40 -105 c-4 -6 1
-16 11 -24 24 -17 11 -33 -51 -65 -24 -12 -42 -26 -40 -30 2 -4 -13 -16 -34
-26 -22 -10 -37 -22 -35 -26 3 -5 -2 -8 -11 -8 -9 0 -14 -4 -10 -10 6 -10 -29
-50 -46 -50 -5 0 -8 4 -5 8 2 4 -11 6 -30 4 -19 -2 -33 -7 -30 -10 3 -3 -2
-11 -12 -18 -16 -12 -16 -13 3 -14 12 -1 4 -7 -20 -15 -24 -8 -32 -13 -20 -14
17 -1 17 -3 5 -11 -8 -5 -24 -10 -35 -10 -12 0 -33 -10 -49 -22 -15 -13 -37
-23 -49 -24 -12 0 -47 -4 -77 -8 -42 -5 -51 -4 -40 4 12 9 9 11 -15 6 -16 -3
-24 -3 -17 0 10 5 10 9 1 21 -10 12 -10 16 2 24 11 7 10 10 -6 15 -16 4 -21
15 -23 54 -2 45 -1 48 22 46 13 0 22 -5 19 -10 -3 -5 0 -6 8 -4 8 3 13 11 11
17 -1 6 7 11 18 11 13 0 17 5 14 14 -4 11 0 13 17 9 15 -4 20 -2 15 5 -5 8 11
10 58 5 38 -3 71 -2 78 4 7 5 46 20 85 33 54 17 85 34 120 66 26 24 53 44 60
44 7 0 13 5 13 10 0 6 23 10 51 10 33 0 48 -4 44 -11z m-1045 -100 c0 -5 -7
-9 -15 -9 -15 0 -20 12 -9 23 8 8 24 -1 24 -14z m107 -34 c0 -8 -6 -15 -13
-15 -18 0 -27 17 -12 23 21 9 25 8 25 -8z m43 -5 c0 -5 -4 -10 -10 -10 -5 0
-10 5 -10 10 0 6 5 10 10 10 6 0 10 -4 10 -10z m1124 -700 c25 -10 46 -24 46
-30 0 -6 -4 -9 -9 -6 -5 3 -22 -1 -37 -9 -32 -17 -80 -20 -88 -6 -12 19 7 43
29 39 13 -3 22 0 22 8 0 7 -4 11 -9 8 -4 -3 -8 0 -8 5 0 14 1 14 54 -9z m-204
-220 c0 -5 -2 -10 -4 -10 -3 0 -8 5 -11 10 -3 6 -1 10 4 10 6 0 11 -4 11 -10z
m210 -200 c8 -5 12 -12 9 -15 -8 -8 -39 5 -39 16 0 11 11 11 30 -1z"/>
<path d="M1680 1176 c0 -10 28 -13 41 -5 10 6 7 9 -13 9 -16 0 -28 -2 -28 -4z"/>
<path d="M1265 1851 c-3 -5 -1 -12 5 -16 5 -3 10 1 10 9 0 18 -6 21 -15 7z"/>
<path d="M428 943 c6 -2 18 -2 25 0 6 3 1 5 -13 5 -14 0 -19 -2 -12 -5z"/>
<path d="M2090 392 c0 -5 12 -14 27 -21 28 -13 28 -13 9 8 -20 22 -36 27 -36
13z"/>
<path d="M2083 335 c0 -7 8 -10 19 -7 10 2 18 6 18 7 0 1 -8 5 -18 7 -11 3
-19 0 -19 -7z"/>
</g>
</svg>
